<svg xmlns="http://www.w3.org/2000/svg" xmlns:xlink="http://www.w3.org/1999/xlink" viewBox="0 0 400 200"><defs><style>.a{fill:none;}.b{fill:#e4c14b;}.c{clip-path:url(#a);}.d{clip-path:url(#b);}.e{clip-path:url(#c);}.f{clip-path:url(#d);}</style><clipPath id="a"><rect class="a" x="130" width="9" height="6"/></clipPath><clipPath id="b"><rect class="a" x="269" width="7" height="8"/></clipPath><clipPath id="c"><rect class="a" x="355" y="197" width="7" height="3"/></clipPath><clipPath id="d"><rect class="a" x="30" y="189" width="8" height="11"/></clipPath></defs><title>header_bg_2</title><path class="b" d="M70.89,86l6.71-6.8A1.12,1.12,0,0,0,76,77.63l-6.71,6.8c-1,1,.58,2.62,1.59,1.59Z"/><path class="b" d="M86.31,70.34A29.41,29.41,0,0,0,92.63,65c1-1.08-.63-2.68-1.59-1.59a27.53,27.53,0,0,1-5.87,5c-1.22.77-.09,2.72,1.14,1.94Z"/><path class="b" d="M97.54,55.31A16,16,0,0,0,103,49.37c.67-1.29-1.27-2.42-1.95-1.14a13.47,13.47,0,0,1-4.61,5.13c-1.21.79-.08,2.74,1.14,2Z"/><path class="b" d="M111,41.32l7.42-9.45c.88-1.12-.7-2.73-1.6-1.59l-7.41,9.45c-.88,1.12.7,2.73,1.59,1.59Z"/><path class="b" d="M124.07,21.11a32.78,32.78,0,0,1,5.25-7.54c1-1.06-.6-2.65-1.59-1.59a35.26,35.26,0,0,0-5.6,8c-.66,1.29,1.28,2.43,1.94,1.14Z"/><path class="b" d="M74.73,92.38a87.1,87.1,0,0,0,7.2,6.09c1.2.82,2.33-1.13,1.14-1.94a82,82,0,0,1-6.75-5.75c-1.09-.93-2.69.65-1.59,1.6Z"/><path class="b" d="M87.7,103.3a32,32,0,0,0,7.23,5.17c1.29.67,2.43-1.27,1.14-1.94a29.4,29.4,0,0,1-6.77-4.83c-1-1-2.64.59-1.6,1.6Z"/><path class="b" d="M101.93,114.47c2.72,1.93,5.28,4.07,8,6,1.19.84,2.31-1.11,1.14-1.94-2.72-1.93-5.28-4.07-8-6-1.19-.84-2.31,1.11-1.14,1.94Z"/><path class="b" d="M115.07,125.48q3.36,3.58,6.88,7a1.12,1.12,0,0,0,1.59-1.59c-2.33-2.31-4.64-4.64-6.88-7-1-1-2.58.54-1.59,1.6Z"/><path class="b" d="M135.65,144.93c1.87,2.24,4,4.28,6,6.37,1,1,2.6-.56,1.59-1.6-2-2.08-4.16-4.12-6-6.36-.93-1.12-2.51.48-1.59,1.59Z"/><path class="b" d="M146.55,156l5.26,3.37c1.22.78,2.35-1.16,1.14-1.94l-5.26-3.37c-1.22-.78-2.35,1.16-1.14,1.94Z"/><path class="b" d="M158.11,163.86A63,63,0,0,0,145,164.93c-1.42.27-.82,2.44.6,2.17a59.92,59.92,0,0,1,12.47-1,1.13,1.13,0,0,0,0-2.25Z"/><path class="b" d="M135.61,166.14a39.94,39.94,0,0,0-7.46,1c-1.41.33-.81,2.5.6,2.17a36.86,36.86,0,0,1,6.86-.92c1.44,0,1.45-2.3,0-2.25Z"/><path class="b" d="M119.48,167.23l-9.72,1c-1.43.14-1.45,2.39,0,2.25l9.72-1c1.43-.14,1.44-2.39,0-2.25Z"/><path class="b" d="M100.73,167.14l-7.5.42c-1.44.09-1.45,2.34,0,2.25l7.5-.42c1.44-.09,1.45-2.34,0-2.25Z"/><path class="b" d="M82.36,168a49.47,49.47,0,0,1-8.69-.38c-1.42-.19-2,2-.6,2.17a52.46,52.46,0,0,0,9.29.46c1.44-.05,1.45-2.3,0-2.25Z"/><path class="b" d="M62.5,166.38c-3-.07-6-.94-9-1a1.12,1.12,0,0,0,0,2.24c3,.07,6,.94,9,1a1.12,1.12,0,0,0,0-2.24Z"/><path class="b" d="M44.42,166.2c-.75,2.14-2.25,3.85-3,6-.48,1.37,1.69,2,2.16.6.75-2.14,2.25-3.85,3-6,.48-1.37-1.69-2-2.16-.6Z"/><path class="b" d="M39.53,178.93c-.9,1.93-1.11,4.08-2,6-.61,1.31,1.33,2.45,1.94,1.14.9-1.93,1.11-4.08,2-6,.61-1.31-1.33-2.45-1.94-1.14Z"/><path class="b" d="M126.94,136.47a25.75,25.75,0,0,1,4.3,3.91c1,1.09,2.54-.51,1.59-1.59a28.7,28.7,0,0,0-4.75-4.26c-1.18-.84-2.3,1.11-1.14,1.94Z"/><path class="b" d="M268.32,16.45a15.69,15.69,0,0,0,2.89-4.27c.59-1.31-1.35-2.46-1.95-1.14a13.76,13.76,0,0,1-2.53,3.81c-1,1.05.59,2.65,1.59,1.6Z"/><path class="b" d="M263.77,26.47,266,23.1c.8-1.21-1.14-2.33-1.95-1.14l-2.26,3.37c-.8,1.21,1.14,2.34,1.95,1.14Z"/><path class="b" d="M258.57,37l3.25-5c.79-1.21-1.16-2.34-1.95-1.13l-3.24,5c-.79,1.21,1.15,2.34,1.94,1.13Z"/><path class="b" d="M253.39,47.27l2.67-3c1-1.08-.62-2.67-1.59-1.59l-2.67,3c-1,1.07.62,2.67,1.59,1.59Z"/><path class="b" d="M246.05,56.78l4.08-5.66c.84-1.18-1.11-2.3-1.95-1.14l-4.08,5.66c-.84,1.18,1.11,2.3,2,1.14Z"/><path class="b" d="M237.49,68.45a38.62,38.62,0,0,1,5-5.86c1-1-.55-2.6-1.59-1.6a42.37,42.37,0,0,0-5.33,6.32c-.82,1.2,1.13,2.32,2,1.14Z"/><path class="b" d="M230.78,74.62a17.68,17.68,0,0,1,4.66,3.64c1,1.06,2.57-.53,1.59-1.6a19.85,19.85,0,0,0-5.12-4c-1.27-.69-2.41,1.26-1.13,2Z"/><path class="b" d="M240.82,83a14.19,14.19,0,0,0,4.65,4.34,1.13,1.13,0,0,0,1.14-1.94,11.73,11.73,0,0,1-3.85-3.53c-.81-1.19-2.76-.07-1.94,1.13Z"/><path class="b" d="M252.81,91.63a14.39,14.39,0,0,0,6.88,4.43,1.12,1.12,0,0,0,.59-2.17A12.42,12.42,0,0,1,254.4,90c-.94-1.1-2.53.5-1.59,1.59Z"/><path class="b" d="M265.08,101.08l5.36,3.6c1.2.8,2.33-1.14,1.13-2l-5.35-3.59c-1.21-.81-2.34,1.13-1.14,1.94Z"/><path class="b" d="M275.68,109.18l7.67,5.61c1.17.86,2.3-1.09,1.14-1.94l-7.67-5.61c-1.17-.86-2.29,1.09-1.14,1.94Z"/><path class="b" d="M289,120.48a29.3,29.3,0,0,0,4.36,3.34c1.23.78,2.36-1.17,1.14-1.94a26.44,26.44,0,0,1-3.91-3c-1.06-1-2.66.61-1.59,1.59Z"/><path class="b" d="M297.65,128.31a22.88,22.88,0,0,0,4.78,4.38c1.19.82,2.32-1.13,1.13-1.94a20.92,20.92,0,0,1-4.32-4c-.91-1.13-2.49.47-1.59,1.59Z"/><path class="b" d="M307.1,138.39a39,39,0,0,0,5.59,3.76c1.27.7,2.41-1.24,1.14-1.94a35.24,35.24,0,0,1-5.14-3.41c-1.12-.9-2.72.68-1.59,1.59Z"/><path class="b" d="M316.7,146.52l4.57,5.69c.91,1.13,2.49-.47,1.59-1.59l-4.57-5.69c-.91-1.13-2.49.47-1.59,1.59Z"/><path class="b" d="M325.45,158.33a25.47,25.47,0,0,0,5.22,6.47c1.07,1,2.67-.62,1.59-1.59a23.68,23.68,0,0,1-4.86-6,1.13,1.13,0,0,0-1.95,1.13Z"/><path class="b" d="M336.28,170.66a25.6,25.6,0,0,1,4.68,4.68c.86,1.14,2.82,0,1.94-1.13a27.51,27.51,0,0,0-5-5.14c-1.13-.88-2.74.7-1.59,1.59Z"/><path class="b" d="M344.34,180.76a26.2,26.2,0,0,0,3.09,4.78c.91,1.12,2.49-.48,1.59-1.59a23,23,0,0,1-2.73-4.32c-.64-1.3-2.59-.16-2,1.13Z"/><path class="b" d="M350.7,191.27a30.27,30.27,0,0,1,3.27,4.3c.76,1.23,2.71.11,1.95-1.13a32.88,32.88,0,0,0-3.63-4.76c-1-1.08-2.56.52-1.59,1.59Z"/><g class="c"><path class="b" d="M134.36,5.07c1.22-2.64,2.43-5.29,3.65-7.93.6-1.3-1.34-2.45-1.95-1.13l-3.64,7.92c-.6,1.31,1.34,2.45,1.94,1.14Z"/></g><g class="d"><path class="b" d="M272.5,6A7.6,7.6,0,0,1,274.69.69c1-1-.57-2.63-1.59-1.59A10,10,0,0,0,270.25,6a1.13,1.13,0,0,0,2.25,0Z"/></g><g class="e"><path class="b" d="M356.74,200l.89,3.78c.33,1.41,2.5.81,2.17-.6l-.89-3.78c-.34-1.41-2.51-.81-2.17.6Z"/></g><g class="f"><path class="b" d="M35.38,191.5a12.85,12.85,0,0,1-1,3.89,10.62,10.62,0,0,1-1.66,3.31c-1,1.08.62,2.67,1.6,1.6a12.86,12.86,0,0,0,2.09-3.94,14.93,14.93,0,0,0,1.23-4.86c.06-1.45-2.19-1.45-2.24,0Z"/></g><path class="b" d="M347,200H42.37s5.63-16,7.21-27.36C82,179,173.32,169.7,173.32,169.7S108,103,80.94,87.32C93,76,133,28,144.65,0H265.41C248,51,220,75.85,220,75.85S308,129,347,200Z"/></svg>