<svg xmlns="http://www.w3.org/2000/svg" viewBox="0 0 332.16 436.18" fill="#f4f9f2"><title>Confuror</title><path d="M270.7,208.1c14.77,6.07-24.29,2.36-31.72-.24-25.27-8.83-.15,8.73-19.72,2.33-5.5-1.8-9.59-5.23-13.6-6.11s10.66,8,3.33,6.69c-11.36-2-26.54,4.75-32.39,10a78.27,78.27,0,0,0-15.16,18.5c-4.27,7.12-6.76,10.59-9.69,18.83a141.9,141.9,0,0,0-4.12,15.59c-.65,2.85-3.18,12.67-2.77,21.63.48,10.42.37,9.3,1.9,19.08q1.86,15.3,4,28.94A173.27,173.27,0,0,1,153.08,365a170.48,170.48,0,0,1,.46,20.09,95.45,95.45,0,0,1-3.23,22.28A51.58,51.58,0,0,1,141.14,426q-6.28,8-17.82,9.78A24.37,24.37,0,0,1,107,433a42.58,42.58,0,0,1-13.2-12.18,94.6,94.6,0,0,1-10.51-19.05,210.12,210.12,0,0,1-8.16-22.91Q71.6,366.51,68.84,354t-4.79-23.71q-2-11.24-3.25-20.73t-2.12-15.26q-3.41-18.29-7.63-36.71t-7.11-36.78q-1.81-11.53-3-25.88a93.68,93.68,0,0,1,1.62-27.4,54.2,54.2,0,0,1,10.66-22.91q7.86-9.82,24.13-12.39a22,22,0,0,1,16.12,3.39,45.18,45.18,0,0,1,12.47,12.52,87.38,87.38,0,0,1,8.83,16.9c2.38,6.08,8.55,36.92,9.33,50.61,5.48-33,8.32-51.48,21-69.06,22.71-31.41,82.48-41,65.8-29.28-26.67,18.83,2.92,1.34,24.81-.57,25.55-2.23,42.28,2.77,28.85,7.09-25.78,8.29-9,7.78,5.6,7.28s38.25.62,20.37,7.29c-16.83,6.28,15.44-4,32.79,16.76,15.56,18.61,8.13,16.8-3.53,14.88-7.11-1.17-21.18,0-24.47,1.74-39.35,20.79,39-20.76,1.94,18.93C276.83,212.67,244.74,197.43,270.7,208.1Z"/><path d="M117,83c1.73,11.29-14.08,32.37-54.44,36.24-20.49,2-53.22-2.67-52.78-31C10.26,56,44.89,26.85,62,25.62,78.13,24.49,112.78,55.6,117,83Z"/><path d="M1.05,4.82S-3.44,23.09,6.16,40.71,25.1,32.16,25.1,32.16s19.82-4.22,14.3-11.5C33.61,13.05,18,1.86,1.05,4.82Z"/><path d="M110.87,0S92.73-.71,81.28,13.69C73,24.12,94.6,25.61,94.6,25.61s6.51,21.32,14.57,15.92C116.58,36.55,118.79,16,110.87,0Z"/></svg>