<svg xmlns="http://www.w3.org/2000/svg" viewBox="0 0 1719.95 529.39" fill="#f4f9f2"><title>Confuror logo</title><path d="M274.45,140.65a124.56,124.56,0,0,1,3.28,25.93,91.51,91.51,0,0,1-3.17,26.86,61.36,61.36,0,0,1-11.81,22.91q-8.26,10-22.77,13.54-22.09,5.37-34.73.07a43.52,43.52,0,0,1-20-16.2,80.54,80.54,0,0,1-10.93-24.41q-3.63-13.47-7.15-25.33t-8.91-18.89q-5.4-7-16.74-4.29a31.72,31.72,0,0,0-19.86,14.5Q114.42,166.8,111,183a185.54,185.54,0,0,0-3.74,35.64q-.3,19.47,1.23,38.12t4.17,35.07q2.63,16.41,5.09,26.49,3.21,13.26,8.6,31.32a150.4,150.4,0,0,0,14.49,33.57,78.73,78.73,0,0,0,22,24.72q12.91,9.24,31.86,4.63a98.73,98.73,0,0,0,23.92-9.11q11.2-6.06,22.22-13.08t22.53-13.15A103.32,103.32,0,0,1,287.53,368q14.5-3.51,26.81,5.86a41.74,41.74,0,0,1,15.82,23.89q4.89,20.21-3.51,40.61a139.11,139.11,0,0,1-23.81,38.18,164.52,164.52,0,0,1-35.33,30.63q-19.94,12.85-37.6,17.14-45.43,11-82-1.83a166.4,166.4,0,0,1-64-40.6q-27.39-27.75-45.65-65.76a393.13,393.13,0,0,1-27.89-77.75,379,379,0,0,1-9-59.28A452.54,452.54,0,0,1,1.13,212a393.46,393.46,0,0,1,10.63-67.72,250.64,250.64,0,0,1,23.5-61.19,179.28,179.28,0,0,1,38.13-48Q96.19,14.87,127.76,7.2q30.9-7.5,55.5,2.9a119.6,119.6,0,0,1,42.94,31,180.57,180.57,0,0,1,30.23,47.46A311.51,311.51,0,0,1,274.45,140.65Z"/><path d="M378.55,384.49q-22.14,0-38.62-11.71a102,102,0,0,1-27.77-29.94,142.36,142.36,0,0,1-16.9-40.57,178.87,178.87,0,0,1-5.64-44,211.06,211.06,0,0,1,5.64-47.56A159.41,159.41,0,0,1,312.62,166a102.61,102.61,0,0,1,29.94-33q18.21-12.8,43.39-12.8,24.29,0,41.44,13.23a100.32,100.32,0,0,1,27.55,33,151.12,151.12,0,0,1,14.75,43.17,181.49,181.49,0,0,1,3,44.26,249.43,249.43,0,0,1-7.16,46.43,152.43,152.43,0,0,1-17.12,42.13,96.19,96.19,0,0,1-28.64,30.37Q402.4,384.5,378.55,384.49Zm4.34-196.12q-6.51,0-11.5,6.94a61.47,61.47,0,0,0-8.24,16.92,134.18,134.18,0,0,0-5,21,125.1,125.1,0,0,0-1.74,19.31,142.12,142.12,0,0,0,2,22.56,135.1,135.1,0,0,0,5.42,22.35,61.31,61.31,0,0,0,8.43,17q5,6.74,11.5,6.73,6.93,0,11.93-6.51a51.51,51.51,0,0,0,8-16.49A121,121,0,0,0,408,276.26a208.58,208.58,0,0,0,1.3-22.35,142.1,142.1,0,0,0-1.74-21,135.25,135.25,0,0,0-5-21.48,55.21,55.21,0,0,0-8.24-16.49Q389.39,188.37,382.89,188.37Z"/><path d="M637.43,344.71q-7.32,1.1-12.58-4.93a50.62,50.62,0,0,1-8.7-14.28,103.3,103.3,0,0,1-5.38-17q-1.95-8.7-2.66-13.42a221.83,221.83,0,0,1-2.33-26q-.42-13.09-.4-26.26t-.4-26.26a224.39,224.39,0,0,0-2.33-26q-.78-5.15-2.09-11.09a58,58,0,0,0-3.64-11,20,20,0,0,0-6.25-8.06,12.35,12.35,0,0,0-9.52-2.09q-3.87.59-7.66,7.5a95.83,95.83,0,0,0-6.69,15.47,126.77,126.77,0,0,0-4.5,16.9q-1.62,8.37-1,12.22,1.41,9.45,3.06,19.06t3.12,19.5l3.71,24.89q.72,7.8,1.08,16.07a147,147,0,0,1-.21,16.26,84.46,84.46,0,0,1-1.66,15.38A47.24,47.24,0,0,1,565.6,335a35.72,35.72,0,0,1-8.34,10.27,25.18,25.18,0,0,1-12.79,5.41,19.34,19.34,0,0,1-15-3.47,41.38,41.38,0,0,1-11.16-13,87.66,87.66,0,0,1-7.87-19q-3.18-10.74-5.37-21.17t-3.31-19.25q-1.1-8.82-1.87-14l-3-20.17q-2.43-16.31-5.44-32.09t-5.37-31.66q-1.29-8.58-3-21.92a121.13,121.13,0,0,1-.65-26.44,57.46,57.46,0,0,1,6.64-23.14q5.52-10,18.83-12a16.72,16.72,0,0,1,11.3,2.26A42.18,42.18,0,0,1,529,103.8a60.1,60.1,0,0,1,7.8,11.12q3.3,6.09,5.31,10.62a84.11,84.11,0,0,1,8.33-13.1,69.76,69.76,0,0,1,26.9-21.12,76.31,76.31,0,0,1,20.22-5.64q21.88-3.24,35.73,5.44a63.15,63.15,0,0,1,21.92,23.49,123.08,123.08,0,0,1,12.08,32.64q4,17.83,6.15,32.43,1.08,7.31,1.94,21.87t.65,32.37q-.21,17.81-2.2,36.74a234.75,234.75,0,0,1-6.21,34.92q-4.2,16-11.59,26.73T637.43,344.71Z"/><path d="M929.91,96.51a88.68,88.68,0,0,1-3.43,17.17,38.63,38.63,0,0,1-7.43,13.88,30,30,0,0,1-12.42,8.57q-7.51,2.84-18,1.76-11.91-1.2-17.13-6.55a24.2,24.2,0,0,1-6.67-12.44,50.21,50.21,0,0,1-.62-15.18c.52-5,.79-10,.81-15a28.17,28.17,0,0,0-2.38-12q-2.37-5-10-5.82-7.14-.72-12.78,9.73a135.75,135.75,0,0,0-10,24.42,220.16,220.16,0,0,0-6.6,27.39q-2.34,13.44-2.82,18.19,6.27-.3,12.07-.45a101.53,101.53,0,0,1,12.45.55,71.61,71.61,0,0,1,13.66,2.83,53.77,53.77,0,0,1,12.91,5.88,26.59,26.59,0,0,1,9.13,9.57,23.32,23.32,0,0,1,2.43,13.92q-.84,8.52-8.94,14.43a66.07,66.07,0,0,1-18.76,9.36A146.8,146.8,0,0,1,833.92,212a157.79,157.79,0,0,1-17,2.1c-1.28,21.94-5.78,93.58-8,115.74-2.13,20.9-7,76.21-10.08,96.37-1.64,9.75-4.09,33.95-16.06,45.06-5.82,5.41-12.61,8-22.44,7a28.87,28.87,0,0,1-13.5-4.5,28.33,28.33,0,0,1-8.67-9.29A41.7,41.7,0,0,1,733.38,452c-1-4.58-.6-23.42-.43-28.2.31-19.12,3.31-80.81,4.31-100.07s5.38-88.09,7.67-107.38a43.81,43.81,0,0,1-6.48-.18l-6.43-.66a81.41,81.41,0,0,1-13.66-2.83,59.14,59.14,0,0,1-15-6.56A46,46,0,0,1,691.64,196a18.07,18.07,0,0,1-3.88-13.83,24.43,24.43,0,0,1,8.7-16.87,55.65,55.65,0,0,1,17.85-9.93,84.27,84.27,0,0,1,21.13-4.32q10.9-.78,19.1-.93l.78-7.6A315.68,315.68,0,0,1,764.7,93.1,180.08,180.08,0,0,1,785,45.26a105.71,105.71,0,0,1,33.85-34.7q20.56-13,50.1-10Q887.5,2.47,900,11.65a68.08,68.08,0,0,1,19.82,22.66,86.31,86.31,0,0,1,9.47,29.76A138.07,138.07,0,0,1,929.91,96.51Z"/><path d="M1033.26,329.38a236.87,236.87,0,0,1-4.77,47.29,128.94,128.94,0,0,1-16.06,41.87,87.25,87.25,0,0,1-30.17,29.73q-18.88,11.28-47.08,11.28-27.78,0-46.42-11.07A84.63,84.63,0,0,1,859,419.19,125.83,125.83,0,0,1,843.42,378a240.11,240.11,0,0,1-4.55-46.86,222.56,222.56,0,0,1,6-51.67q1.29-6.93,5-19.31a154.92,154.92,0,0,1,9.54-24.3,93.84,93.84,0,0,1,13.45-20.61q7.58-8.67,16.7-8.68,8.67,0,13.88,4.77a34.14,34.14,0,0,1,8.25,11.93,54,54,0,0,1,3.9,15.19A135.88,135.88,0,0,1,916.5,253,124,124,0,0,1,915,272.5q-1.53,9.56-3.25,19.09-1.74,13-3.26,26a223.66,223.66,0,0,0-1.52,26q0,6.51.65,14.54a60.58,60.58,0,0,0,3.25,15.4,33.69,33.69,0,0,0,7.38,12.37q4.77,5,13.45,5,11.28,0,18-6.07a36.77,36.77,0,0,0,10-15.19,77.18,77.18,0,0,0,4.12-19.53q.86-10.41.87-19.09a269.38,269.38,0,0,0-2.6-37.53q-2.61-18.44-4.77-37.53a31.58,31.58,0,0,1-.44-6.07,42.3,42.3,0,0,1,8.25-24.73,31.43,31.43,0,0,1,9.54-8.46,24.74,24.74,0,0,1,12.58-3.26,24.47,24.47,0,0,1,16.93,6.73,54.61,54.61,0,0,1,12.36,17.35,129.81,129.81,0,0,1,8.24,23.92q3.24,13.24,5.21,26t2.6,24.08Q1033.26,322.89,1033.26,329.38Z"/><path d="M1658.49,228.36c14.77,6.07-24.29,2.36-31.72-.24-25.27-8.83-.15,8.73-19.72,2.33-5.5-1.8-9.59-5.23-13.6-6.11s10.66,8,3.33,6.69c-11.36-2-26.54,4.75-32.39,10a78.67,78.67,0,0,0-15.16,18.5c-4.27,7.12-6.76,10.59-9.69,18.83a142.5,142.5,0,0,0-4.12,15.59c-.65,2.85-3.18,12.67-2.77,21.63.48,10.42.37,9.3,1.9,19.08q1.86,15.31,4,28.94a175.17,175.17,0,0,1,2.32,21.68,170.48,170.48,0,0,1,.46,20.09,95.29,95.29,0,0,1-3.23,22.28,51.91,51.91,0,0,1-9.17,18.64q-6.3,8-17.82,9.78a24.31,24.31,0,0,1-16.3-2.82,42.34,42.34,0,0,1-13.2-12.18A93.57,93.57,0,0,1,1471.1,422a208.63,208.63,0,0,1-8.16-22.91q-3.56-12.33-6.31-24.81t-4.79-23.71q-2-11.22-3.25-20.73t-2.12-15.26q-3.42-18.27-7.63-36.71t-7.11-36.78q-1.82-11.52-3-25.88a93.72,93.72,0,0,1,1.62-27.4A54.2,54.2,0,0,1,1441,164.92q7.86-9.81,24.13-12.39a22,22,0,0,1,16.12,3.39,45.45,45.45,0,0,1,12.47,12.52,87.67,87.67,0,0,1,8.83,16.9c2.38,6.08,8.55,36.92,9.33,50.61,5.48-33,8.32-51.48,21-69.06,22.71-31.41,82.48-41,65.8-29.28-26.67,18.83,2.92,1.34,24.81-.57,25.55-2.23,42.28,2.77,28.85,7.09-25.78,8.29-9,7.78,5.6,7.28s38.25.62,20.37,7.29c-16.83,6.28,15.44-4,32.79,16.76,15.56,18.61,8.13,16.8-3.53,14.88-7.11-1.17-21.18,0-24.47,1.74-39.35,20.79,39-20.76,1.94,18.93C1664.62,232.93,1632.53,217.69,1658.49,228.36Z"/><path d="M1325.13,458.34q-22.14,0-38.62-11.71a102,102,0,0,1-27.77-29.94,142.69,142.69,0,0,1-16.92-40.57,178.87,178.87,0,0,1-5.64-44,211.77,211.77,0,0,1,5.64-47.51,159.69,159.69,0,0,1,17.35-44.69,102.61,102.61,0,0,1,29.94-33q18.21-12.79,43.39-12.8,24.29,0,41.44,13.23a100.32,100.32,0,0,1,27.55,33,151.28,151.28,0,0,1,14.77,43.09,181.49,181.49,0,0,1,3,44.26,249.43,249.43,0,0,1-7.16,46.43A152.23,152.23,0,0,1,1395,416.22a96.19,96.19,0,0,1-28.64,30.37Q1349,458.35,1325.13,458.34Zm4.34-196.12q-6.51,0-11.5,6.94a61.21,61.21,0,0,0-8.25,16.92,134.18,134.18,0,0,0-5,21,126.35,126.35,0,0,0-1.74,19.31,142.12,142.12,0,0,0,2,22.56,135.1,135.1,0,0,0,5.42,22.35,61.32,61.32,0,0,0,8.46,16.93q5,6.74,11.5,6.73,6.93,0,11.93-6.51a51.51,51.51,0,0,0,8-16.49,120,120,0,0,0,4.34-21.91,206,206,0,0,0,1.3-22.35,142.1,142.1,0,0,0-1.74-21,135.25,135.25,0,0,0-5-21.48,55.21,55.21,0,0,0-8.24-16.49q-5-6.51-11.48-6.51Z"/><path d="M1208.38,271.3a26.22,26.22,0,0,1-10.66.16c-3.06-.66-6.11-1.41-9.17-2.24q-4.17-1.28-8.29-2.35a19.44,19.44,0,0,0-8.91-.05,31.36,31.36,0,0,0-15,6.69,54.6,54.6,0,0,0-11,12.44,71.92,71.92,0,0,0-7.68,15.83,94.93,94.93,0,0,0-4.23,16.75,95.85,95.85,0,0,0-.06,16.25q.63,10.83,2.09,23.12,1.08,12.8,2.45,24.19a146.14,146.14,0,0,1,1.27,18.1,143.47,143.47,0,0,1-.23,16.72,79.59,79.59,0,0,1-3.36,18.43,43.09,43.09,0,0,1-8.2,15.22q-5.48,6.45-15.12,7.59a20.22,20.22,0,0,1-13.47-2.84,35.39,35.39,0,0,1-10.55-10.52,78.06,78.06,0,0,1-8.16-16.16,173.52,173.52,0,0,1-6.09-19.3q-2.58-10.36-4.49-20.83t-3.26-19.87q-1.37-9.39-2.07-17.34t-1.3-12.75q-2.28-15.3-5.23-30.76t-4.8-30.81q-1.15-9.64-1.69-21.61a78.08,78.08,0,0,1,2.18-22.74,45.12,45.12,0,0,1,9.56-18.72q6.84-7.92,20.45-9.57a18.34,18.34,0,0,1,13.3,3.31,37.81,37.81,0,0,1,10,10.82,72.93,72.93,0,0,1,6.83,14.32,98.82,98.82,0,0,1,3.92,14.22q8.49-18.36,20.37-30.7t32.84-15.72a78.33,78.33,0,0,1,21.08-.51,60.59,60.59,0,0,1,19.81,5.65,45.66,45.66,0,0,1,15.75,12.58,41.5,41.5,0,0,1,8.39,19.92q2.55,14-5.77,22.5T1208.38,271.3Z"/><path d="M1504.77,103.26c1.73,11.29-14.08,32.37-54.44,36.24-20.49,2-53.22-2.67-52.78-31,.5-32.23,35.13-61.39,52.19-62.62C1465.92,44.75,1500.57,75.86,1504.77,103.26Z"/><path d="M1388.84,25.08S1384.35,43.35,1394,61s18.94-8.55,18.94-8.55,19.82-4.22,14.3-11.5C1421.4,33.31,1405.82,22.12,1388.84,25.08Z"/><path d="M1498.66,20.27s-18.14-.72-29.59,13.68c-8.29,10.43,13.32,11.92,13.32,11.92s6.51,21.32,14.57,15.92C1504.37,56.81,1506.58,36.25,1498.66,20.27Z"/></svg>