<?xml version="1.0" standalone="no"?>
<!DOCTYPE svg PUBLIC "-//W3C//DTD SVG 20010904//EN"
 "http://www.w3.org/TR/2001/REC-SVG-20010904/DTD/svg10.dtd">
<svg version="1.0" xmlns="http://www.w3.org/2000/svg"
 width="600.000000pt" height="600.000000pt" viewBox="0 0 600.000000 600.000000"
 preserveAspectRatio="xMidYMid meet">
<metadata>
Created by potrace 1.11, written by Peter Selinger 2001-2013
</metadata>
<g transform="translate(0.000000,600.000000) scale(0.100000,-0.100000)"
fill="#000000" stroke="none">
<path d="M2660 5949 c-128 -13 -340 -54 -481 -93 -382 -105 -732 -286 -1049
-541 -131 -106 -373 -349 -473 -475 -325 -408 -533 -896 -620 -1450 -18 -115
-21 -179 -21 -430 0 -319 11 -424 69 -683 118 -526 399 -1030 795 -1427 449
-448 1007 -734 1630 -835 136 -22 824 -22 960 0 623 101 1181 387 1630 835
396 397 677 901 795 1427 58 259 69 364 69 683 0 251 -3 315 -21 430 -87 558
-291 1031 -623 1450 -106 134 -344 372 -480 480 -437 347 -951 562 -1500 625
-147 16 -532 19 -680 4z m304 -859 c20 -59 26 -180 13 -242 -9 -44 -51 -98
-76 -98 -25 0 -56 37 -86 101 -23 51 -29 58 -63 64 -109 20 -130 63 -64 129
59 60 166 107 232 103 21 -2 28 -11 44 -57z m-850 -23 c78 -37 156 -106 156
-137 0 -23 -45 -54 -103 -72 -31 -9 -43 -21 -62 -57 -13 -25 -35 -57 -49 -70
-22 -21 -31 -23 -53 -15 -55 19 -104 148 -107 279 -2 116 0 119 81 112 45 -5
89 -17 137 -40z m497 -203 c164 -86 344 -307 380 -467 17 -77 -4 -133 -78
-206 -205 -201 -712 -230 -866 -50 -42 49 -57 97 -57 185 1 137 66 270 200
405 89 89 150 132 235 161 63 22 100 17 186 -28z m1303 -793 c4 -5 -23 -31
-59 -57 -60 -44 -85 -74 -51 -61 108 42 256 79 340 87 93 8 239 0 279 -15 29
-12 19 -33 -20 -45 -63 -20 -133 -52 -133 -60 0 -16 37 -20 200 -20 180 0 230
-5 230 -25 0 -7 -24 -23 -52 -35 l-53 -23 70 -9 c149 -18 234 -60 305 -149 48
-61 74 -108 65 -117 -4 -4 -79 -7 -168 -7 l-162 0 -57 -33 c-32 -19 -58 -35
-58 -37 0 -2 25 5 55 15 30 10 75 22 100 25 37 6 46 4 51 -10 18 -45 -94 -178
-189 -225 -64 -31 -142 -50 -205 -50 -42 0 -35 -9 28 -35 80 -33 71 -38 -55
-31 -75 3 -157 15 -219 30 -55 14 -103 23 -108 20 -4 -3 -8 -17 -8 -31 0 -24
-3 -25 -36 -20 -19 3 -63 20 -98 36 -80 40 -88 39 -46 -4 l33 -34 -35 5 c-95
16 -255 -53 -342 -146 -69 -76 -160 -226 -191 -319 -30 -88 -65 -266 -65 -331
0 -27 14 -149 31 -272 17 -123 35 -254 40 -293 15 -115 12 -370 -6 -455 -43
-206 -150 -320 -300 -320 -37 0 -76 8 -101 19 -191 87 -336 443 -435 1071 -28
181 -68 388 -139 735 -102 495 -91 747 38 919 45 59 110 98 202 122 105 27
172 2 261 -94 68 -72 122 -180 148 -292 27 -114 61 -314 61 -358 0 -64 12 -25
41 136 50 277 105 414 214 530 70 76 146 129 258 182 140 67 323 110 341 81z"/>
</g>
</svg>
