<?xml version="1.0" standalone="no"?>
<!DOCTYPE svg PUBLIC "-//W3C//DTD SVG 20010904//EN"
 "http://www.w3.org/TR/2001/REC-SVG-20010904/DTD/svg10.dtd">
<svg version="1.0" xmlns="http://www.w3.org/2000/svg"
 width="900.000000pt" height="900.000000pt" viewBox="0 0 900.000000 900.000000"
 preserveAspectRatio="xMidYMid meet">
<metadata>
Created by potrace 1.11, written by Peter Selinger 2001-2013
</metadata>
<g transform="translate(0.000000,900.000000) scale(0.100000,-0.100000)"
fill="#000000" stroke="none">
<path d="M3261 8852 c-209 -35 -379 -136 -489 -293 -7 -10 -10 -19 -7 -19 3 0
1 -8 -4 -18 -14 -27 12 -78 56 -104 44 -27 91 -43 182 -61 l64 -12 27 -72 c51
-133 135 -251 182 -254 10 -1 24 -2 31 -3 50 -8 119 72 153 179 22 68 26 100
28 210 0 72 -3 155 -7 185 -10 60 -50 196 -74 246 -16 36 -20 36 -142 16z"/>
<path d="M1214 8773 c-31 -6 -35 -29 -39 -188 -4 -148 7 -237 44 -362 45 -149
134 -286 193 -295 74 -11 154 62 221 203 l42 87 59 17 c174 50 263 120 240
188 -5 14 -27 44 -49 68 -158 170 -383 277 -592 283 -54 2 -108 1 -119 -1z"/>
<path d="M2335 8340 c-195 -49 -458 -240 -649 -470 -155 -186 -258 -389 -302
-595 -19 -89 -22 -253 -5 -325 54 -225 235 -376 531 -444 110 -25 179 -31 355
-30 178 0 244 6 355 30 14 3 39 7 55 10 192 33 420 130 576 245 205 151 293
334 248 514 -16 65 -77 214 -120 292 -148 271 -454 579 -704 710 -126 66 -244
88 -340 63z"/>
<path d="M5235 6600 c-246 -42 -568 -174 -789 -322 -362 -243 -547 -529 -667
-1033 -23 -97 -24 -103 -39 -185 -6 -30 -12 -64 -14 -75 -13 -68 -36 -196 -41
-230 -3 -23 -7 -52 -10 -65 -3 -13 -7 -42 -11 -65 -8 -53 -14 -57 -15 -12 -1
21 -2 40 -3 45 -1 4 -6 39 -11 77 -5 39 -9 72 -10 75 0 3 -4 28 -9 55 -4 28
-16 100 -28 160 -11 61 -22 121 -24 135 -15 86 -70 317 -90 379 -60 180 -178
376 -298 497 -95 94 -148 131 -234 163 -165 62 -456 -6 -625 -145 -166 -136
-291 -411 -324 -710 -14 -129 -8 -433 11 -554 3 -14 7 -56 11 -93 3 -37 8 -76
9 -85 2 -9 7 -44 12 -77 4 -33 8 -62 9 -65 0 -3 5 -32 10 -65 5 -33 9 -62 10
-65 4 -19 16 -82 21 -115 7 -50 68 -352 93 -465 16 -74 48 -217 82 -370 5 -25
11 -55 14 -68 2 -13 6 -31 9 -40 3 -9 8 -33 11 -52 3 -19 8 -42 10 -50 3 -8 7
-31 9 -50 3 -19 9 -56 15 -82 6 -26 13 -66 16 -90 3 -24 7 -54 10 -68 3 -14 8
-43 10 -65 27 -214 68 -481 90 -595 3 -14 8 -36 10 -50 3 -14 7 -40 10 -58 2
-18 6 -36 9 -40 2 -4 7 -29 10 -56 4 -27 9 -53 11 -56 2 -4 7 -22 10 -41 9
-56 63 -286 96 -414 17 -66 32 -124 33 -130 26 -114 147 -464 201 -580 103
-222 189 -359 295 -466 127 -129 238 -187 375 -196 140 -9 283 32 391 113 144
107 276 380 310 639 2 22 7 46 9 52 10 28 19 198 18 343 0 165 -13 382 -29
515 -10 81 -13 102 -28 195 -14 91 -22 143 -32 220 -2 19 -9 64 -14 100 -5 36
-12 88 -15 115 -12 98 -35 262 -42 290 -2 11 -6 103 -8 205 -4 180 2 241 39
410 3 14 8 38 11 53 38 185 104 382 169 502 190 352 380 566 586 662 59 28
150 61 175 64 6 1 21 6 34 11 21 8 60 13 164 22 15 2 47 0 70 -4 86 -13 88 7
6 75 -32 27 -54 52 -48 54 6 2 58 -21 117 -50 133 -65 224 -97 277 -95 l40 1
-3 54 c-2 34 1 57 9 62 18 11 73 2 169 -27 46 -14 92 -28 102 -30 10 -2 26 -6
37 -8 23 -5 71 -13 136 -22 28 -3 57 -8 65 -9 102 -19 395 -24 413 -6 18 18
-6 33 -123 81 -58 24 -109 47 -115 52 -5 4 29 8 75 9 47 0 94 2 105 4 11 2 40
7 65 10 162 23 349 117 455 230 108 114 183 215 207 277 l18 49 -26 26 c-24
24 -29 25 -97 19 -76 -7 -80 -8 -221 -55 -50 -17 -91 -29 -93 -28 -1 2 19 14
44 27 26 14 73 39 105 57 32 18 58 30 58 28 0 -3 11 0 25 5 82 31 395 34 535
5 14 -3 49 -6 79 -6 53 -1 74 12 76 46 3 36 -77 160 -179 278 -100 116 -251
205 -416 245 -80 20 -120 25 -264 37 -33 3 -61 7 -63 9 -2 2 33 18 79 36 165
62 179 105 45 135 -10 2 -60 7 -110 11 -90 7 -168 8 -488 4 -169 -2 -219 4
-219 26 0 18 72 54 190 94 162 56 188 74 154 111 -21 24 -91 44 -194 57 -75
10 -398 9 -490 -1 -106 -11 -255 -49 -470 -118 -102 -33 -191 -62 -197 -64
-39 -13 1 26 109 105 138 103 158 124 136 146 -21 22 -92 23 -203 4z"/>
</g>
</svg>
