<?xml version="1.0" standalone="no"?>
<!DOCTYPE svg PUBLIC "-//W3C//DTD SVG 20010904//EN"
 "http://www.w3.org/TR/2001/REC-SVG-20010904/DTD/svg10.dtd">
<svg version="1.0" xmlns="http://www.w3.org/2000/svg"
 width="600.000000pt" height="600.000000pt" viewBox="0 0 600.000000 600.000000"
 preserveAspectRatio="xMidYMid meet">
<metadata>
Created by potrace 1.11, written by Peter Selinger 2001-2013
</metadata>
<g transform="translate(0.000000,600.000000) scale(0.100000,-0.100000)"
fill="#000000" stroke="none">
<path d="M2809 5896 c-2 -2 -40 -6 -84 -9 -44 -4 -91 -9 -105 -11 -14 -3 -61
-10 -105 -16 -44 -7 -107 -18 -140 -26 -33 -8 -69 -16 -81 -18 -11 -2 -25 -6
-31 -9 -5 -3 -23 -8 -39 -11 -51 -9 -259 -80 -266 -91 -4 -5 -8 -7 -8 -3 0 16
-304 -126 -421 -198 -31 -19 -61 -34 -67 -34 -6 0 -12 -4 -14 -8 -1 -4 -35
-29 -74 -55 -225 -148 -447 -351 -639 -584 -56 -67 -80 -101 -147 -202 -43
-64 -81 -121 -85 -126 -17 -21 -131 -245 -170 -335 -50 -112 -133 -348 -147
-420 -3 -14 -10 -45 -17 -70 -11 -48 -16 -70 -24 -110 -3 -14 -7 -36 -10 -50
-2 -13 -7 -41 -10 -62 -25 -164 -29 -232 -30 -438 0 -231 8 -340 36 -495 7
-33 13 -70 14 -82 4 -28 44 -194 52 -213 3 -8 8 -23 10 -34 8 -45 83 -250 130
-356 45 -103 140 -284 174 -332 11 -14 19 -31 19 -37 0 -6 5 -11 11 -11 5 0 8
-4 5 -9 -4 -5 -3 -11 1 -13 5 -1 25 -29 46 -60 34 -51 51 -72 87 -115 5 -7 10
-15 10 -18 0 -6 59 -77 140 -169 114 -130 330 -324 455 -411 32 -22 63 -46 71
-53 7 -6 15 -12 19 -12 4 0 27 -14 52 -32 100 -68 310 -178 458 -238 44 -18
89 -36 100 -41 11 -4 54 -19 95 -33 63 -20 99 -31 175 -52 24 -7 263 -56 290
-60 17 -2 40 -6 52 -8 131 -27 635 -27 772 -1 13 2 42 7 65 9 48 7 83 13 146
27 42 10 54 13 106 23 12 2 54 14 94 26 40 12 80 23 89 25 14 3 43 14 171 61
8 3 15 4 15 3 0 -1 11 4 25 11 14 8 27 15 30 15 43 11 269 126 390 200 243
147 521 383 685 581 22 26 47 55 55 64 8 8 26 31 40 50 13 19 27 37 30 40 4 3
22 28 40 55 19 28 37 52 42 53 4 2 8 7 8 12 0 4 27 52 61 106 79 130 73 120
110 194 18 36 32 68 31 73 -1 4 3 7 8 7 6 0 10 4 10 10 0 5 11 33 24 62 45
101 75 178 69 178 -3 0 -1 6 4 13 10 11 59 163 68 204 2 10 13 56 25 103 12
47 23 94 25 105 9 60 16 103 21 124 3 13 7 45 10 70 3 25 7 62 10 81 3 19 7
127 9 240 5 257 -12 429 -69 705 -23 110 -94 329 -152 469 -32 76 -131 274
-171 341 -37 63 -144 228 -152 235 -3 3 -26 32 -51 65 -25 33 -49 65 -55 71
-5 6 -30 35 -55 65 -72 85 -229 238 -331 323 -129 107 -128 106 -139 106 -6 0
-10 3 -10 8 0 4 -18 18 -40 32 -22 14 -40 28 -40 31 0 4 -8 9 -17 13 -10 3
-38 19 -63 36 -25 16 -52 33 -60 37 -8 3 -17 9 -20 12 -5 6 -29 19 -140 78
-185 98 -510 216 -695 253 -27 5 -61 12 -75 15 -38 8 -82 16 -110 20 -31 4
-104 14 -150 21 -42 6 -475 15 -481 10z"/>
</g>
</svg>
