<?xml version="1.0" standalone="no"?>
<!DOCTYPE svg PUBLIC "-//W3C//DTD SVG 20010904//EN"
 "http://www.w3.org/TR/2001/REC-SVG-20010904/DTD/svg10.dtd">
<svg version="1.0" xmlns="http://www.w3.org/2000/svg"
 width="900.000000pt" height="900.000000pt" viewBox="0 0 900.000000 900.000000"
 preserveAspectRatio="xMidYMid meet">
<metadata>
Created by potrace 1.14, written by Peter Selinger 2001-2017
</metadata>
<g transform="translate(0.000000,900.000000) scale(0.100000,-0.100000)"
fill="#000000" stroke="none">
<path d="M3225 8846 c-88 -20 -203 -67 -267 -110 -31 -20 -86 -68 -122 -106
-72 -77 -90 -123 -65 -169 20 -37 112 -79 211 -97 l85 -16 13 -42 c22 -75 100
-214 141 -251 107 -96 214 3 255 235 26 150 5 339 -55 495 l-26 70 -55 2 c-30
1 -82 -4 -115 -11z"/>
<path d="M1228 8773 c-35 -4 -37 -6 -45 -51 -4 -26 -7 -112 -7 -192 2 -121 6
-162 28 -245 26 -101 88 -244 127 -293 92 -118 207 -62 307 149 l36 77 98 32
c145 48 218 108 204 167 -10 39 -158 179 -242 229 -82 48 -178 88 -256 108
-63 16 -193 26 -250 19z"/>
<path d="M2321 8334 c-104 -28 -268 -121 -391 -222 -287 -236 -488 -549 -546
-850 -18 -97 -18 -253 1 -327 72 -275 354 -440 790 -462 272 -13 619 52 862
163 226 103 413 283 460 443 72 250 -222 754 -618 1061 -231 178 -399 237
-558 194z"/>
<path d="M5190 6590 c-386 -84 -776 -292 -1015 -541 -244 -255 -361 -557 -476
-1224 -22 -132 -42 -241 -43 -242 -1 -1 -14 85 -30 191 -31 222 -103 588 -141
721 -53 184 -186 417 -309 541 -177 178 -324 220 -560 160 -232 -59 -373 -173
-488 -394 -136 -260 -171 -549 -122 -1007 38 -359 87 -637 213 -1205 77 -348
127 -617 156 -830 99 -744 267 -1455 447 -1893 187 -458 426 -706 698 -724
141 -9 312 47 413 137 63 56 159 204 198 304 43 111 76 247 94 383 28 213 16
650 -26 933 -11 74 -33 232 -50 350 -16 118 -39 278 -50 355 -26 175 -36 441
-20 554 16 123 77 389 117 509 40 124 86 217 184 378 144 236 309 413 456 491
159 84 343 127 492 116 39 -4 62 -2 62 5 0 5 -28 35 -62 66 -84 74 -57 74 95
-3 120 -60 240 -98 276 -86 19 6 20 12 15 60 -6 48 -5 53 15 60 27 8 59 2 185
-36 138 -42 331 -69 536 -75 173 -5 219 1 194 26 -6 6 -64 33 -128 60 -65 27
-121 51 -124 54 -3 4 29 6 71 6 171 0 352 46 480 121 162 96 385 362 375 447
-8 67 -111 64 -325 -7 -65 -22 -119 -38 -121 -36 -2 1 49 30 113 64 102 54
128 63 213 76 124 19 302 19 417 0 157 -26 195 -19 195 35 0 60 -164 278 -278
369 -132 106 -361 180 -557 181 -85 0 -98 13 -39 36 95 38 169 79 172 97 9 49
-140 67 -558 67 -256 0 -330 3 -344 13 -18 13 -17 15 10 34 32 22 124 60 227
93 74 24 125 59 113 78 -37 61 -340 97 -616 73 -172 -14 -295 -43 -549 -125
-112 -37 -206 -65 -209 -62 -9 10 19 35 129 116 119 88 145 116 127 137 -15
19 -145 15 -248 -7z"/>
</g>
</svg>
